# xmcd CD database file
#
# Track frame offsets:
#	150
#	84132
#	118547
#	177037
#	186480
#	225190
#	243617
#
# Disc length: 4494 seconds
#
# Revision: 0
# Processed by: cddbd v1.5PL3 Copyright (c) Steve Scherf et al.
# Submitted via: CDex 1.51
#
DISCID=4a118c07
DTITLE=Soft Mahine - BACKWORDS
DYEAR=2002
DGENRE=Jazz
TTITLE0=Facelift
TTITLE1=Moon in June
TTITLE2=Esther's Nose Job
TTITLE3=Esther's Nose Job(bonus)
TTITLE4=Facelift
TTITLE5=Hibou Anemone And Bear
TTITLE6=Moon In June - demo
EXTD=YEAR: 2002
EXTT0=
EXTT1=
EXTT2=
EXTT3=
EXTT4=
EXTT5=
EXTT6=
PLAYORDER=
